<svg width="42" height="34" viewBox="0 0 42 34" fill="none" xmlns="http://www.w3.org/2000/svg">
<g filter="url(#filter0_d_16_2686)">
<path d="M14.4543 6.6875C15.3671 6.6875 16.2114 6.75893 16.9829 6.97036C17.7557 7.11179 18.3886 7.39464 18.95 7.7475C19.5128 8.10083 19.9343 8.59559 20.2143 9.23178C20.4957 9.8675 20.6371 10.6461 20.6371 11.4932C20.6371 12.4832 20.4257 13.3304 19.9343 13.9661C19.5128 14.6032 18.81 15.1675 17.9671 15.5918C19.1614 15.9461 20.0743 16.5818 20.6371 17.4289C21.2 18.2761 21.55 19.3375 21.55 20.5389C21.55 21.5289 21.3386 22.3761 20.9871 23.0832C20.6371 23.7903 20.0743 24.4261 19.4414 24.8503C18.7537 25.3046 17.9939 25.6389 17.1943 25.8389C16.3514 26.0518 15.5086 26.1932 14.6657 26.1932H5.25V6.6875H14.4543ZM13.8914 14.6018C14.6643 14.6018 15.2971 14.3904 15.7886 14.0375C16.28 13.6846 16.4914 13.0475 16.4914 12.2704C16.4914 11.8461 16.42 11.4218 16.28 11.1404C16.14 10.8589 15.9286 10.6446 15.6486 10.4332C15.3623 10.2724 15.0544 10.1536 14.7343 10.0804C14.3829 10.0089 14.0329 10.0089 13.61 10.0089H9.53571V14.6032L13.8914 14.6018ZM14.1029 22.9418C14.5243 22.9418 14.9457 22.8703 15.2971 22.8003C15.6486 22.7289 16 22.5889 16.28 22.3761C16.5651 22.168 16.8044 21.9035 16.9829 21.5989C17.1229 21.2461 17.2643 20.8218 17.2643 20.3275C17.2643 19.3375 16.9829 18.6304 16.4214 18.1361C15.8586 17.7118 15.0857 17.5004 14.1729 17.5004H9.53571V22.9432L14.1029 22.9418ZM27.6628 22.8703C28.2247 23.4361 29.0676 23.7189 30.1914 23.7189C30.9643 23.7189 31.6671 23.5075 32.2286 23.1546C32.7914 22.7299 33.1428 22.3056 33.2828 21.8818H36.7257C36.1628 23.5775 35.32 24.7789 34.1971 25.5561C33.0714 26.2632 31.7371 26.6875 30.1214 26.6875C29.0878 26.689 28.063 26.4972 27.1 26.1218C26.233 25.7984 25.4602 25.2643 24.8514 24.5675C24.1976 23.918 23.7151 23.1164 23.4471 22.2346C23.0957 21.3161 22.9543 20.3275 22.9543 19.1961C22.9543 18.1361 23.0957 17.1475 23.4471 16.2275C23.7842 15.3412 24.2848 14.5261 24.9228 13.8246C25.5543 13.1889 26.3271 12.6246 27.17 12.2704C28.1082 11.8936 29.1104 11.7016 30.1214 11.7046C31.3157 11.7046 32.37 11.9175 33.2828 12.4118C34.1971 12.9061 34.8986 13.4718 35.46 14.3204C36.0228 15.0975 36.4457 16.0161 36.7257 17.0061C36.8657 17.9946 36.9357 18.9846 36.8657 20.1146H26.6786C26.6786 21.2461 27.1 22.3061 27.6628 22.8718M32.0886 15.4518C31.5971 14.9575 30.8243 14.6746 29.91 14.6746C29.3739 14.6666 28.8438 14.7876 28.3643 15.0275C27.9428 15.2404 27.6628 15.5232 27.3814 15.8061C27.1212 16.0782 26.9498 16.4229 26.89 16.7946C26.8186 17.1489 26.7486 17.4304 26.7486 17.7132H33.0714C32.9314 16.6532 32.58 15.9475 32.0886 15.4518ZM25.9057 8.03036H33.7743V9.93893H25.9071L25.9057 8.03036Z" fill="#C5B3E5"/>
</g>
<defs>
<filter id="filter0_d_16_2686" x="-1.1" y="-3.1" width="43.0931" height="40.2" filterUnits="userSpaceOnUse" color-interpolation-filters="sRGB">
<feFlood flood-opacity="0" result="BackgroundImageFix"/>
<feColorMatrix in="SourceAlpha" type="matrix" values="0 0 0 0 0 0 0 0 0 0 0 0 0 0 0 0 0 0 127 0" result="hardAlpha"/>
<feOffset dy="2"/>
<feGaussianBlur stdDeviation="2.55"/>
<feComposite in2="hardAlpha" operator="out"/>
<feColorMatrix type="matrix" values="0 0 0 0 0.772549 0 0 0 0 0.701961 0 0 0 0 0.898039 0 0 0 0.6 0"/>
<feBlend mode="normal" in2="BackgroundImageFix" result="effect1_dropShadow_16_2686"/>
<feBlend mode="normal" in="SourceGraphic" in2="effect1_dropShadow_16_2686" result="shape"/>
</filter>
</defs>
</svg>
